<svg xmlns="http://www.w3.org/2000/svg" width="85" height="18" fill="none" viewBox="0 0 85 18">
    <path fill="#fff" d="M7.71 12.82c0-.695-.179-1.218-.538-1.57-.352-.36-.996-.73-1.934-1.113-1.71-.649-2.941-1.407-3.691-2.274C.797 6.988.422 5.957.422 4.77c0-1.438.508-2.59 1.523-3.457C2.97.438 4.265 0 5.835 0c1.048 0 1.981.223 2.802.668.82.437 1.449 1.059 1.886 1.863.446.805.668 1.719.668 2.742H7.758c0-.796-.172-1.402-.516-1.816-.336-.422-.824-.633-1.465-.633-.601 0-1.07.18-1.406.54-.336.35-.504.827-.504 1.429 0 .469.188.894.563 1.277.375.375 1.039.766 1.992 1.172 1.664.602 2.871 1.34 3.621 2.215.758.875 1.137 1.988 1.137 3.34 0 1.484-.473 2.644-1.418 3.48-.946.836-2.23 1.254-3.856 1.254-1.101 0-2.105-.226-3.011-.68-.907-.453-1.618-1.101-2.133-1.945C.254 14.062 0 13.066 0 11.918h3.457c0 .984.191 1.7.574 2.145.383.445 1.008.667 1.875.667 1.203 0 1.805-.636 1.805-1.91zM25.477 10.3c0 2.29-.543 4.067-1.63 5.333-1.078 1.265-2.578 1.898-4.5 1.898-1.913 0-3.417-.625-4.511-1.875-1.094-1.258-1.649-3.015-1.664-5.273V7.465c0-2.344.543-4.172 1.629-5.485C15.887.66 17.395 0 19.324 0c1.899 0 3.395.648 4.488 1.945 1.094 1.29 1.649 3.102 1.665 5.438V10.3zM22.02 7.442c0-1.539-.22-2.683-.657-3.433-.437-.75-1.117-1.125-2.039-1.125-.914 0-1.59.363-2.027 1.09-.438.718-.664 1.816-.68 3.293V10.3c0 1.492.223 2.594.668 3.304.445.704 1.133 1.055 2.063 1.055.898 0 1.566-.344 2.004-1.031.437-.695.66-1.77.668-3.223V7.441zM37.992 3.105h-4.219v14.192h-3.457V3.105h-4.148V.235h11.824v2.87zM48.785 9.914h-5.367v4.524h6.352v2.859h-9.797V.234h9.773v2.871h-6.328v4.032h5.367v2.777zM56.93 11.063h-1.711v6.234h-3.446V.234h5.496c1.727 0 3.06.45 3.997 1.348.945.89 1.418 2.16 1.418 3.809 0 2.265-.825 3.851-2.473 4.757l2.988 6.985v.164h-3.703l-2.566-6.235zM55.219 8.19h1.957c.687 0 1.203-.226 1.547-.68.343-.46.515-1.074.515-1.84 0-1.71-.668-2.566-2.004-2.566H55.22v5.086zM68.648 17.297h-3.445V.234h3.445v17.063zM79.898 13.805H75.2l-.914 3.492h-3.644L75.973.234h3.152l5.367 17.063h-3.68l-.914-3.492zm-3.949-2.871h3.188l-1.594-6.082-1.594 6.082z"/>
</svg>
