<svg xmlns="http://www.w3.org/2000/svg" width="17" height="33" fill="none" viewBox="0 0 17 33">
    <path fill="#17C58F" d="M3.142 31.34c.936.747 2.423 1.66 4.85 1.66 2.427 0 4.3-1.494 5.316-2.49 1.721-1.825 2.19-4.314 2.19-5.642 0-1.327-.39-3.319-1.173-4.48-.782-1.162-1.297-1.682-2.346-2.49-.616-.473-1.587-.984-2.032-1.21l-.032-.016c-.147-.074-.294-.148-.439-.225l-.057-.03c-.64-.34-1.248-.732-1.82-1.174l-.94-.83-.938-.995-.782-.913-.782-1.079-.18-.284c-.295-.471-.519-.989-.66-1.528-.117-.447-.177-.911-.177-1.374V7.186c0-.103-.023-.206-.067-.3-.104-.22-.316-.372-.558-.399L1.729 6.4c-.205-.023-.412-.005-.609.053-.658.194-1.109.798-1.109 1.483v.503l.008.13c.047.741.172 1.475.374 2.19.11.39.24.773.42 1.135.154.305.365.69.606 1.026.8 1.113.936 1.253 2.581 2.904s4.928 3.651 5.632 4.066c.704.415 1.567 1.245 2.036 1.825.47.581 1.017 1.743 1.017 3.154 0 1.41-.423 2.323-1.173 3.319-.751.995-2.112 1.825-3.52 1.825s-2.126-.415-2.894-.913c-.768-.498-1.174-1.161-1.643-2.074-.25-.486-.367-1.183-.421-1.73-.056-.559.004-1.12.108-1.672.202-.972.7-1.858 1.424-2.536l.216-.202c.416-.331.87-.611 1.351-.835l.527-.244.625-.249-1.564-1.079-1.343-1.078C2.37 18.444.852 20.355.33 22.556c-.099.415-.184.81-.24 1.15-.235 1.411 0 3.237.625 4.482.626 1.244 1.367 2.509 2.427 3.153z"/>
    <path fill="#17C58F" d="M8.942 15.301l1.978 1.126s.306-.503.604-1.043c.19-.346.313-.58.425-1.022.264-1.039.415-1.774.415-1.774s-.933 1.02-1.48 1.494c-.643.554-1.942 1.22-1.942 1.22z"/>
    <path fill="#17C58F" fill-rule="evenodd" d="M8.93.059c.6.08 1.278.309 1.7.467.273.103.564.153.855.131.421-.032.84.086 1.183.334l1.425 1.027 1.203.922c.136.104.256.227.357.365.255.347.377.775.343 1.205l-.028.361-.858-.198c-.365.442-.765.853-1.197 1.228l-.211.183.704-.83.391-.58-.235-.084c-.207.33-.46.63-.753.888l-.498.44.277-.327c.284-.334.532-.697.74-1.084l-1.486-.414c-1.04-.22-2.102-.313-3.163-.276l-.748.027-1.489-.747 1.489 1.162.508.06c1.044.122 2.024.564 2.808 1.263.495.441 1.07.782 1.694 1.004l1.48.526-.174-.031c-.821-.145-1.627-.368-2.405-.665.202.563.558 1.06 1.027 1.432l.222.176-.441-.267c-.427-.258-.768-.637-.98-1.088-.095-.202-.217-.39-.361-.56l-.066-.078c-.278-.327-.617-.598-.998-.796l-.283-.147c-.415-.199-.857-.334-1.312-.402l-.644-.096c.356.97 1.015 1.8 1.878 2.366l1.251.82-.995.037c-.78.03-1.553-.164-2.228-.557-.352-.206-.672-.463-.949-.762L6.895 5.337l-.753-.743c-.445-.44-1.165-.427-1.594.028l-.241.307c-.359.457-.643.967-.843 1.511-.163.446-.268.91-.313 1.383l-.011.118H.012l.003-.084c.05-.988.257-1.963.615-2.885l.014-.035c.036-.094.222-.557.462-.978.02-.037.046-.078.075-.123.573-.896 1.258-1.736 2.115-2.367C4.345.7 5.528.197 6.895.06c.64-.065 1.366-.091 2.036 0zm3.833 1.96c.093-.208-.196-.527-.47-.665-.272-.138-.688-.206-.781 0-.093.207.352.57.625.709.273.138.533.162.626-.045z" clip-rule="evenodd"/>
    <path fill="#17C58F" d="M11.981 1.92c0-.233.163-.434.391-.483v.015c0 .233-.163.435-.391.483V1.92z"/>
</svg>
