<svg xmlns="http://www.w3.org/2000/svg" width="24" height="24" fill="none" viewBox="0 0 24 24">
    <mask id="b1xbydj1la" width="24" height="21" x="0" y="2" maskUnits="userSpaceOnUse">
        <path fill="#fff" fill-rule="evenodd" d="M18.078 8.492c0 3.344-2.55 6.097-5.83 6.454l-.04.01-7.48 1.767c-.953.225-1.696.963-1.92 1.908l-.703 2.954c-.135.568-.71.92-1.283.787-.573-.134-.928-.703-.793-1.271l.702-2.954c.41-1.723 1.765-3.07 3.503-3.48l3.555-.84c-1.702-1.173-2.816-3.125-2.816-5.335C4.973 4.907 7.907 2 11.526 2c3.619 0 6.552 2.907 6.552 6.492zm-10.972 0c0 2.418 1.979 4.379 4.42 4.379 2.44 0 4.419-1.96 4.419-4.379 0-2.418-1.979-4.378-4.42-4.378-2.44 0-4.419 1.96-4.419 4.378zm12.674 6.17l-2.518-.603c-.572-.137-1.149.211-1.287.779-.139.567.213 1.138.786 1.275l2.517.604c.95.227 1.689.964 1.913 1.906l.704 2.962c.135.568.71.92 1.282.787.574-.134.93-.703.794-1.271l-.704-2.962c-.408-1.718-1.756-3.062-3.487-3.477z" clip-rule="evenodd"/>
    </mask>
    <g mask="url(#b1xbydj1la)">
        <path fill="#fff" d="M0 0H24V24H0z"/>
    </g>
</svg>
